REM DIRINDEX 1\2,1\3,1\4,1\5
REM DIRNAME cjc154,folder01,folder02,folder03,folder04
TITLE ""
FILE "CD1Track04.mp3" MP3
  TRACK 01 AUDIO
    TITLE "5:cjc154_0188"
    INDEX 01 00:00:00
  TRACK 02 AUDIO
    TITLE "0:"
    INDEX 01 00:01:32
  TRACK 03 AUDIO
    TITLE "2:cjc154_0189"
    INDEX 01 00:02:40
  TRACK 04 AUDIO
    TITLE "3:cjc154_0190"
    INDEX 01 00:04:35
  TRACK 05 AUDIO
    TITLE "2:cjc154_0191"
    INDEX 01 00:06:33
  TRACK 06 AUDIO
    TITLE "3:cjc154_0192"
    INDEX 01 00:08:68
  TRACK 07 AUDIO
    TITLE "2:cjc154_0193"
    INDEX 01 00:11:29
  TRACK 08 AUDIO
    TITLE "3:cjc154_0194"
    INDEX 01 00:13:51
  TRACK 09 AUDIO
    TITLE "2:cjc154_0195"
    INDEX 01 00:16:04
  TRACK 10 AUDIO
    TITLE "3:cjc154_0196"
    INDEX 01 00:17:51
  TRACK 11 AUDIO
    TITLE "2:cjc154_0197"
    INDEX 01 00:19:26
  TRACK 12 AUDIO
    TITLE "3:cjc154_0198"
    INDEX 01 00:21:43
  TRACK 13 AUDIO
    TITLE "2:cjc154_0199"
    INDEX 01 00:23:61
  TRACK 14 AUDIO
    TITLE "3:cjc154_0200"
    INDEX 01 00:25:17
  TRACK 15 AUDIO
    TITLE "2:cjc154_0201"
    INDEX 01 00:26:52
  TRACK 16 AUDIO
    TITLE "3:cjc154_0202"
    INDEX 01 00:28:72
  TRACK 17 AUDIO
    TITLE "2:cjc154_0203"
    INDEX 01 00:31:31
  TRACK 18 AUDIO
    TITLE "3:cjc154_0204"
    INDEX 01 00:33:44
  TRACK 19 AUDIO
    TITLE "2:cjc154_0205"
    INDEX 01 00:35:66
  TRACK 20 AUDIO
    TITLE "3:cjc154_0206"
    INDEX 01 00:37:40
  TRACK 21 AUDIO
    TITLE "2:cjc154_0207"
    INDEX 01 00:39:25
  TRACK 22 AUDIO
    TITLE "3:cjc154_0208"
    INDEX 01 00:40:52
  TRACK 23 AUDIO
    TITLE "2:cjc154_0209"
    INDEX 01 00:42:14
  TRACK 24 AUDIO
    TITLE "3:cjc154_0210"
    INDEX 01 00:43:29
  TRACK 25 AUDIO
    TITLE "2:cjc154_0211"
    INDEX 01 00:44:50
  TRACK 26 AUDIO
    TITLE "3:cjc154_0212"
    INDEX 01 00:46:06
  TRACK 27 AUDIO
    TITLE "2:cjc154_0213"
    INDEX 01 00:47:44
  TRACK 28 AUDIO
    TITLE "3:cjc154_0214"
    INDEX 01 00:49:08
  TRACK 29 AUDIO
    TITLE "2:cjc154_0215"
    INDEX 01 00:50:56
  TRACK 30 AUDIO
    TITLE "3:cjc154_0216"
    INDEX 01 00:52:73
  TRACK 31 AUDIO
    TITLE "2:cjc154_0217"
    INDEX 01 00:55:16
  TRACK 32 AUDIO
    TITLE "3:cjc154_0218"
    INDEX 01 00:57:23
  TRACK 33 AUDIO
    TITLE "2:cjc154_0219"
    INDEX 01 00:59:30
  TRACK 34 AUDIO
    TITLE "3:cjc154_0220"
    INDEX 01 01:00:60
  TRACK 35 AUDIO
    TITLE "2:cjc154_0221"
    INDEX 01 01:02:18
  TRACK 36 AUDIO
    TITLE "3:cjc154_0222"
    INDEX 01 01:04:11
  TRACK 37 AUDIO
    TITLE "2:cjc154_0223"
    INDEX 01 01:06:14
  TRACK 38 AUDIO
    TITLE "3:cjc154_0224"
    INDEX 01 01:08:07
  TRACK 39 AUDIO
    TITLE "2:cjc154_0225"
    INDEX 01 01:10:06
  TRACK 40 AUDIO
    TITLE "3:cjc154_0226"
    INDEX 01 01:11:54
  TRACK 41 AUDIO
    TITLE "2:cjc154_0227"
    INDEX 01 01:13:38
  TRACK 42 AUDIO
    TITLE "3:cjc154_0228"
    INDEX 01 01:14:55
  TRACK 43 AUDIO
    TITLE "2:cjc154_0229"
    INDEX 01 01:16:07
  TRACK 44 AUDIO
    TITLE "3:cjc154_0230"
    INDEX 01 01:18:35
  TRACK 45 AUDIO
    TITLE "2:cjc154_0231"
    INDEX 01 01:20:71
  TRACK 46 AUDIO
    TITLE "3:cjc154_0232"
    INDEX 01 01:22:48
  TRACK 47 AUDIO
    TITLE "2:cjc154_0233"
    INDEX 01 01:24:26
  TRACK 48 AUDIO
    TITLE "3:cjc154_0234"
    INDEX 01 01:26:44
  TRACK 49 AUDIO
    TITLE "2:cjc154_0235"
    INDEX 01 01:28:65
  TRACK 50 AUDIO
    TITLE "3:cjc154_0236"
    INDEX 01 01:30:73
  TRACK 51 AUDIO
    TITLE "2:cjc154_0237"
    INDEX 01 01:33:13
  TRACK 52 AUDIO
    TITLE "3:cjc154_0238"
    INDEX 01 01:35:08
  TRACK 53 AUDIO
    TITLE "2:cjc154_0239"
    INDEX 01 01:37:09
  TRACK 54 AUDIO
    TITLE "3:cjc154_0240"
    INDEX 01 01:39:14
  TRACK 55 AUDIO
    TITLE "2:cjc154_0241"
    INDEX 01 01:41:22
  TRACK 56 AUDIO
    TITLE "3:cjc154_0242"
    INDEX 01 01:43:25
  TRACK 57 AUDIO
    TITLE "2:cjc154_0243"
    INDEX 01 01:45:38
  TRACK 58 AUDIO
    TITLE "3:cjc154_0244"
    INDEX 01 01:47:05
  TRACK 59 AUDIO
    TITLE "2:cjc154_0245"
    INDEX 01 01:48:50
  TRACK 60 AUDIO
    TITLE "3:cjc154_0246"
    INDEX 01 01:51:17
  TRACK 61 AUDIO
    TITLE "2:cjc154_0247"
    INDEX 01 01:53:69
  TRACK 62 AUDIO
    TITLE "3:cjc154_0248"
    INDEX 01 01:55:60
  TRACK 63 AUDIO
    TITLE "2:cjc154_0249"
    INDEX 01 01:57:72
  TRACK 64 AUDIO
    TITLE "3:cjc154_0250"
    INDEX 01 01:59:50
  TRACK 65 AUDIO
    TITLE "2:cjc154_0251"
    INDEX 01 02:01:35
  TRACK 66 AUDIO
    TITLE "3:cjc154_0252"
    INDEX 01 02:03:69
  TRACK 67 AUDIO
    TITLE "2:cjc154_0253"
    INDEX 01 02:06:44
  TRACK 68 AUDIO
    TITLE "3:cjc154_0254"
    INDEX 01 02:08:60
  TRACK 69 AUDIO
    TITLE "2:cjc154_0255"
    INDEX 01 02:11:14
  TRACK 70 AUDIO
    TITLE "3:cjc154_0256"
    INDEX 01 02:12:66
  TRACK 71 AUDIO
    TITLE "2:cjc154_0257"
    INDEX 01 02:14:55
  TRACK 72 AUDIO
    TITLE "3:cjc154_0258"
    INDEX 01 02:15:58
  TRACK 73 AUDIO
    TITLE "2:cjc154_0259"
    INDEX 01 02:17:04
  TRACK 74 AUDIO
    TITLE "3:cjc154_0260"
    INDEX 01 02:19:56
  TRACK 75 AUDIO
    TITLE "2:cjc154_0261"
    INDEX 01 02:22:45
  TRACK 76 AUDIO
    TITLE "3:cjc154_0262"
    INDEX 01 02:24:02
  TRACK 77 AUDIO
    TITLE "2:cjc154_0263"
    INDEX 01 02:25:47
  TRACK 78 AUDIO
    TITLE "3:cjc154_0264"
    INDEX 01 02:27:13
  TRACK 79 AUDIO
    TITLE "2:cjc154_0265"
    INDEX 01 02:28:61
  TRACK 80 AUDIO
    TITLE "3:cjc154_0266"
    INDEX 01 02:30:60
  TRACK 81 AUDIO
    TITLE "2:cjc154_0267"
    INDEX 01 02:32:71
  TRACK 82 AUDIO
    TITLE "3:cjc154_0268"
    INDEX 01 02:34:67
  TRACK 83 AUDIO
    TITLE "2:cjc154_0269"
    INDEX 01 02:37:03
  TRACK 84 AUDIO
    TITLE "3:cjc154_0270"
    INDEX 01 02:38:59
  TRACK 85 AUDIO
    TITLE "2:cjc154_0271"
    INDEX 01 02:40:64
  TRACK 86 AUDIO
    TITLE "3:cjc154_0272"
    INDEX 01 02:42:43
  TRACK 87 AUDIO
    TITLE "2:cjc154_0273"
    INDEX 01 02:44:33
  TRACK 88 AUDIO
    TITLE "3:cjc154_0274"
    INDEX 01 02:46:63
  TRACK 89 AUDIO
    TITLE "2:cjc154_0275"
    INDEX 01 02:49:24
  TRACK 90 AUDIO
    TITLE "3:cjc154_0276"
    INDEX 01 02:50:43
  TRACK 91 AUDIO
    TITLE "2:cjc154_0277"
    INDEX 01 02:52:01
  TRACK 92 AUDIO
    TITLE "3:cjc154_0278"
    INDEX 01 02:54:17
  TRACK 93 AUDIO
    TITLE "2:cjc154_0279"
    INDEX 01 02:56:48
  TRACK 94 AUDIO
    TITLE "3:cjc154_0280"
    INDEX 01 02:57:51
  TRACK 95 AUDIO
    TITLE "2:cjc154_0281"
    INDEX 01 02:58:68
  TRACK 96 AUDIO
    TITLE "3:cjc154_0282"
    INDEX 01 03:00:73
  TRACK 97 AUDIO
    TITLE "2:cjc154_0283"
    INDEX 01 03:03:14
  TRACK 98 AUDIO
    TITLE "3:cjc154_0284"
    INDEX 01 03:04:63
  TRACK 99 AUDIO
    TITLE "2:cjc154_0285"
    INDEX 01 03:06:46
  TRACK 100 AUDIO
    TITLE "3:cjc154_0286"
    INDEX 01 03:08:35
  TRACK 101 AUDIO
    TITLE "2:cjc154_0287"
    INDEX 01 03:10:30
  TRACK 102 AUDIO
    TITLE "3:cjc154_0288"
    INDEX 01 03:11:45
  TRACK 103 AUDIO
    TITLE "2:cjc154_0289"
    INDEX 01 03:12:72
  TRACK 104 AUDIO
    TITLE "3:cjc154_0290"
    INDEX 01 03:14:22
  TRACK 105 AUDIO
    TITLE "2:cjc154_0291"
    INDEX 01 03:15:61
  TRACK 106 AUDIO
    TITLE "3:cjc154_0292"
    INDEX 01 03:17:67
  TRACK 107 AUDIO
    TITLE "2:cjc154_0293"
    INDEX 01 03:20:09
  TRACK 108 AUDIO
    TITLE "3:cjc154_0294"
    INDEX 01 03:21:67
  TRACK 109 AUDIO
    TITLE "2:cjc154_0295"
    INDEX 01 03:23:54
  TRACK 110 AUDIO
    TITLE "3:cjc154_0296"
    INDEX 01 03:25:18
  TRACK 111 AUDIO
    TITLE "2:cjc154_0297"
    INDEX 01 03:26:62
  TRACK 112 AUDIO
    TITLE "3:cjc154_0298"
    INDEX 01 03:27:62
  TRACK 113 AUDIO
    TITLE "2:cjc154_0299"
    INDEX 01 03:28:73
  TRACK 114 AUDIO
    TITLE "3:cjc154_0300"
    INDEX 01 03:30:56
  TRACK 115 AUDIO
    TITLE "2:cjc154_0301"
    INDEX 01 03:32:43
  TRACK 116 AUDIO
    TITLE "3:cjc154_0302"
    INDEX 01 03:34:03
  TRACK 117 AUDIO
    TITLE "2:cjc154_0303"
    INDEX 01 03:35:40
  TRACK 118 AUDIO
    TITLE "3:cjc154_0304"
    INDEX 01 03:37:03
  TRACK 119 AUDIO
    TITLE "2:cjc154_0305"
    INDEX 01 03:38:56
  TRACK 120 AUDIO
    TITLE "3:cjc154_0306"
    INDEX 01 03:40:27
  TRACK 121 AUDIO
    TITLE "2:cjc154_0307"
    INDEX 01 03:42:05
  TRACK 122 AUDIO
    TITLE "3:cjc154_0308"
    INDEX 01 03:43:53
  TRACK 123 AUDIO
    TITLE "2:cjc154_0309"
    INDEX 01 03:45:36
  TRACK 124 AUDIO
    TITLE "3:cjc154_0310"
    INDEX 01 03:48:01
  TRACK 125 AUDIO
    TITLE "2:cjc154_0311"
    INDEX 01 03:50:47
  TRACK 126 AUDIO
    TITLE "3:cjc154_0312"
    INDEX 01 03:52:58
  TRACK 127 AUDIO
    TITLE "2:cjc154_0313"
    INDEX 01 03:54:74
  TRACK 128 AUDIO
    TITLE "3:cjc154_0314"
    INDEX 01 03:56:58
  TRACK 129 AUDIO
    TITLE "2:cjc154_0315"
    INDEX 01 03:58:41
  TRACK 130 AUDIO
    TITLE "3:cjc154_0316"
    INDEX 01 04:00:02
  TRACK 131 AUDIO
    TITLE "2:cjc154_0317"
    INDEX 01 04:01:49
  TRACK 132 AUDIO
    TITLE "3:cjc154_0318"
    INDEX 01 04:03:36
  TRACK 133 AUDIO
    TITLE "2:cjc154_0319"
    INDEX 01 04:05:37
  TRACK 134 AUDIO
    TITLE "3:cjc154_0320"
    INDEX 01 04:07:53
  TRACK 135 AUDIO
    TITLE "2:cjc154_0321"
    INDEX 01 04:09:74
  TRACK 136 AUDIO
    TITLE "3:cjc154_0322"
    INDEX 01 04:11:12
  TRACK 137 AUDIO
    TITLE "2:cjc154_0323"
    INDEX 01 04:12:45
  TRACK 138 AUDIO
    TITLE "3:cjc154_0324"
    INDEX 01 04:14:50
  TRACK 139 AUDIO
    TITLE "2:cjc154_0325"
    INDEX 01 04:16:62
  TRACK 140 AUDIO
    TITLE "3:cjc154_0326"
    INDEX 01 04:18:26
  TRACK 141 AUDIO
    TITLE "2:cjc154_0327"
    INDEX 01 04:19:72
  TRACK 142 AUDIO
    TITLE "3:cjc154_0328"
    INDEX 01 04:21:30
  TRACK 143 AUDIO
    TITLE "2:cjc154_0329"
    INDEX 01 04:23:02
  TRACK 144 AUDIO
    TITLE "3:cjc154_0330"
    INDEX 01 04:24:66
  TRACK 145 AUDIO
    TITLE "2:cjc154_0331"
    INDEX 01 04:26:65
  TRACK 146 AUDIO
    TITLE "3:cjc154_0332"
    INDEX 01 04:28:48
  TRACK 147 AUDIO
    TITLE "2:cjc154_0333"
    INDEX 01 04:30:43
  TRACK 148 AUDIO
    TITLE "3:cjc154_0334"
    INDEX 01 04:32:69
  TRACK 149 AUDIO
    TITLE "2:cjc154_0335"
    INDEX 01 04:35:38
  TRACK 150 AUDIO
    TITLE "3:cjc154_0336"
    INDEX 01 04:37:04
  TRACK 151 AUDIO
    TITLE "2:cjc154_0337"
    INDEX 01 04:38:44
  TRACK 152 AUDIO
    TITLE "3:cjc154_0338"
    INDEX 01 04:40:53
  TRACK 153 AUDIO
    TITLE "2:cjc154_0339"
    INDEX 01 04:42:71
  TRACK 154 AUDIO
    TITLE "3:cjc154_0340"
    INDEX 01 04:44:72
  TRACK 155 AUDIO
    TITLE "2:cjc154_0341"
    INDEX 01 04:47:10
  TRACK 156 AUDIO
    TITLE "3:cjc154_0342"
    INDEX 01 04:48:52
  TRACK 157 AUDIO
    TITLE "2:cjc154_0343"
    INDEX 01 04:50:30
  TRACK 158 AUDIO
    TITLE "3:cjc154_0344"
    INDEX 01 04:51:72
  TRACK 159 AUDIO
    TITLE "2:cjc154_0345"
    INDEX 01 04:53:50
  TRACK 160 AUDIO
    TITLE "3:cjc154_0346"
    INDEX 01 04:55:37
  TRACK 161 AUDIO
    TITLE "2:cjc154_0347"
    INDEX 01 04:57:34
  TRACK 162 AUDIO
    TITLE "3:cjc154_0348"
    INDEX 01 04:59:07
  TRACK 163 AUDIO
    TITLE "2:cjc154_0349"
    INDEX 01 05:00:61
  TRACK 164 AUDIO
    TITLE "3:cjc154_0350"
    INDEX 01 05:02:72
  TRACK 165 AUDIO
    TITLE "2:cjc154_0351"
    INDEX 01 05:05:10
  TRACK 166 AUDIO
    TITLE "3:cjc154_0352"
    INDEX 01 05:07:46
  TRACK 167 AUDIO
    TITLE "2:cjc154_0353"
    INDEX 01 05:10:09
  TRACK 168 AUDIO
    TITLE "3:cjc154_0354"
    INDEX 01 05:12:12
  TRACK 169 AUDIO
    TITLE "2:cjc154_0355"
    INDEX 01 05:14:20
  TRACK 170 AUDIO
    TITLE "3:cjc154_0356"
    INDEX 01 05:16:13
  TRACK 171 AUDIO
    TITLE "2:cjc154_0357"
    INDEX 01 05:18:12
  TRACK 172 AUDIO
    TITLE "3:cjc154_0358"
    INDEX 01 05:19:61
  TRACK 173 AUDIO
    TITLE "2:cjc154_0359"
    INDEX 01 05:21:40
  TRACK 174 AUDIO
    TITLE "3:cjc154_0360"
    INDEX 01 05:23:62
  TRACK 175 AUDIO
    TITLE "2:cjc154_0361"
    INDEX 01 05:26:22
  TRACK 176 AUDIO
    TITLE "3:cjc154_0362"
    INDEX 01 05:27:72
  TRACK 177 AUDIO
    TITLE "2:cjc154_0363"
    INDEX 01 05:29:61
  TRACK 178 AUDIO
    TITLE "3:cjc154_0364"
    INDEX 01 05:31:50
  TRACK 179 AUDIO
    TITLE "2:cjc154_0365"
    INDEX 01 05:33:51
  TRACK 180 AUDIO
    TITLE "3:cjc154_0366"
    INDEX 01 05:35:30
  TRACK 181 AUDIO
    TITLE "2:cjc154_0367"
    INDEX 01 05:37:21
  TRACK 182 AUDIO
    TITLE "3:cjc154_0368"
    INDEX 01 05:38:52
  TRACK 183 AUDIO
    TITLE "2:cjc154_0369"
    INDEX 01 05:40:10
  TRACK 184 AUDIO
    TITLE "3:cjc154_0370"
    INDEX 01 05:42:64
  TRACK 185 AUDIO
    TITLE "2:cjc154_0371"
    INDEX 01 05:45:48
  TRACK 186 AUDIO
    TITLE "3:cjc154_0372"
    INDEX 01 05:47:30
  TRACK 187 AUDIO
    TITLE "2:cjc154_0373"
    INDEX 01 05:49:15
  TRACK 188 AUDIO
    TITLE "3:cjc154_0374"
    INDEX 01 05:51:29
  TRACK 189 AUDIO
    TITLE "2:cjc154_0375"
    INDEX 01 05:53:54
  TRACK 190 AUDIO
    TITLE "3:cjc154_0376"
    INDEX 01 05:55:15
  TRACK 191 AUDIO
    TITLE "2:cjc154_0377"
    INDEX 01 05:56:58
  TRACK 192 AUDIO
    TITLE "3:cjc154_0378"
    INDEX 01 05:58:37
  TRACK 193 AUDIO
    TITLE "2:cjc154_0379"
    INDEX 01 06:00:23
  TRACK 194 AUDIO
    TITLE "3:cjc154_0380"
    INDEX 01 06:03:05
  TRACK 195 AUDIO
    TITLE "2:cjc154_0381"
    INDEX 01 06:06:06
  TRACK 196 AUDIO
    TITLE "3:cjc154_0382"
    INDEX 01 06:08:00
  TRACK 197 AUDIO
    TITLE "2:cjc154_0383"
    INDEX 01 06:10:05
  TRACK 198 AUDIO
    TITLE "3:cjc154_0384"
    INDEX 01 06:12:02
  TRACK 199 AUDIO
    TITLE "2:cjc154_0385"
    INDEX 01 06:13:72
  TRACK 200 AUDIO
    TITLE "3:cjc154_0386"
    INDEX 01 06:16:35
  TRACK 201 AUDIO
    TITLE "2:cjc154_0387"
    INDEX 01 06:19:04
  TRACK 202 AUDIO
    TITLE "3:cjc154_0388"
    INDEX 01 06:20:70
  TRACK 203 AUDIO
    TITLE "2:cjc154_0389"
    INDEX 01 06:22:73
  TRACK 204 AUDIO
    TITLE "3:cjc154_0390"
    INDEX 01 06:24:39
  TRACK 205 AUDIO
    TITLE "2:cjc154_0391"
    INDEX 01 06:26:08
  TRACK 206 AUDIO
    TITLE "3:cjc154_0392"
    INDEX 01 06:27:61
  TRACK 207 AUDIO
    TITLE "2:cjc154_0393"
    INDEX 01 06:29:40
  TRACK 208 AUDIO
    TITLE "3:cjc154_0394"
    INDEX 01 06:31:72
  TRACK 209 AUDIO
    TITLE "2:cjc154_0395"
    INDEX 01 06:34:37
  TRACK 210 AUDIO
    TITLE "3:cjc154_0396"
    INDEX 01 06:35:70
  TRACK 211 AUDIO
    TITLE "2:cjc154_0397"
    INDEX 01 06:37:39
  TRACK 212 AUDIO
    TITLE "3:cjc154_0398"
    INDEX 01 06:39:38
  TRACK 213 AUDIO
    TITLE "2:cjc154_0399"
    INDEX 01 06:41:51
  TRACK 214 AUDIO
    TITLE "3:cjc154_0400"
    INDEX 01 06:43:42
  TRACK 215 AUDIO
    TITLE "0:"
    INDEX 01 06:45:41
